<svg id="Layer_1" xmlns="http://www.w3.org/2000/svg" viewBox="0 0 837 837"><defs><style>.cls-1{fill:#fff;}.cls-2{fill:#ef363d;}.cls-2,.cls-3,.cls-4{fill-rule:evenodd;}.cls-3{fill:#f5eb1a;}</style></defs><ellipse class="cls-1" cx="425" cy="454.5" rx="383" ry="343.5"/><path class="cls-4" d="M764.64,668.9c15.52-30.62,34.19-57.06,54.46-81.38-7.74-28.34,3.87-67.07,11.19-93.29,2.11-7.55,6.72-17.28,6.71-22.83-.01-7.15-7.61-18.83-9.7-25.8-5.75-19.15-8.06-41.72-3.73-60.54,1.27-5.52,6.22-13.85,5.97-18.86-.33-6.67-11.78-17.22-16.41-23.82-10.02-14.29-16.14-25.7-20.14-45.65-24.34-17.24-43.72-41.08-56.7-73.44-23.32-13.31-52.54-18.76-54.46-60.54-28.52-14.49-64.86-15.18-92.5-39.7-6.51-5.77-11.06-15.89-17.16-17.86-9.81-3.18-22.89-.84-33.57-.99-27.65-.39-52.52-3.61-74.6-12.9-4.2-1.77-9.53-4.98-12.68-4.96-3.79,.02-8.73,4.19-13.43,5.95-22.32,8.37-53.06,6.8-80.57,3.97-10.8-1.11-22.6-5.4-31.33-3.97-6.35,1.04-14.31,9.01-21.63,12.9-21.78,11.6-48.22,21.2-76.09,22.83-4.96,.29-9.95-1.35-14.17,0-6.96,2.23-15.33,17.98-23.13,25.8-24.12,24.23-51.28,45.35-85.04,53.59-13.67,53.61-40.06,90.27-70.87,121.08,.41,37.89-8.77,64.61-20.14,84.36C11.83,418.22,.08,428.8,0,434.68c-.08,5.95,11.32,17.07,13.43,21.83,9.67,21.86,10.7,53.55,1.49,79.39,22.89,17.5,42.67,51.7,35.06,100.24,40.17,14.7,68.84,44.72,84.3,92.3,45.04,8.23,80.8,28.8,99.22,72.45,45.54-6.94,86.75,13.79,117.87,34.74,7.26,4.89,23.88-4.67,34.32-6.95,22.64-4.93,45.29-4.46,69.38-.99,11.25,1.62,23.42,7.25,32.82,5.95,7.19-.99,18.61-10.58,26.86-14.89,19.08-9.97,37.31-16.68,58.93-22.83,10.93-3.11,22.39-3.97,32.08-7.94,6.15-2.52,11.16-9.55,17.16-14.89,5.8-5.17,12.3-9.61,17.9-13.89,11.93-9.12,25.89-21.86,40.28-21.83,2.8,0,7.44,3.93,10.44,2.98,4.56-1.45,10.65-18.65,14.17-23.82,15.05-22.04,37.91-37.51,58.93-47.64Zm-126.07,81.38c-12.67,9.54-24.23,21.14-34.32,30.77-32.79,4.81-63.32,14.85-91.01,28.78-9.19,4.62-18.45,14.81-26.11,15.88-3.82,.53-10.31-1.92-15.67-2.98-39.2-7.72-82.14-8.81-115.63,6.95-32.96-20.02-69.95-44.07-118.61-36.72-19.77-41.18-53.44-63.88-98.47-71.46-16.16-44.99-42.71-76.16-82.06-90.31,6.01-49-14.41-79.17-34.32-100.24,9.2-22.43,4.77-58.1-2.98-76.42-1.96-4.62-12.03-16.92-11.94-19.85,.06-1.93,10.33-14.78,12.68-18.86,13.06-22.62,20.49-45.49,20.89-82.37,29.3-31.48,55.75-66.75,69.38-119.09,32.82-8.55,59.97-29.58,83.55-53.59,7.6-7.74,16.42-22.66,23.13-24.81,3.71-1.19,8.3,.26,12.68,0,27.85-1.63,54.3-11.24,76.09-22.83,7.19-3.82,15.53-12.03,21.63-12.9,7.62-1.09,17.96,3.05,26.86,3.97,27.89,2.87,58.52,5.77,84.3-2.98,3.69-1.25,8.88-5.92,12.68-5.95,7.65-.06,17.78,7.82,25.36,9.92,19.18,5.33,39.08,6.65,60.43,6.95,10.38,.14,23.61-2.38,32.82,.99,6.19,2.27,12.67,14.57,20.89,20.84,24.72,18.88,57.46,23.87,85.79,33.74,2.99,41.02,30.52,49.38,55.2,61.53,13.19,31.42,31.74,55.7,55.95,72.45,4.86,30.27,24.19,46.53,34.32,66.49-13.71,30.68-3.72,81.03,8.95,103.21-9.35,30.76-25.8,74.93-18.65,114.13-19.57,22.26-36.68,47.8-51.47,76.42-30.21,14.39-54.68,36.43-70.87,69.47-19.23-4.12-36.91,7.89-51.47,18.86Z"/><path class="cls-3" d="M690.04,731.42c16.19-33.04,40.65-55.08,70.87-69.47,14.8-28.61,31.9-54.16,51.47-76.42-7.15-39.2,9.3-83.37,18.65-114.13-12.67-22.19-22.66-72.54-8.95-103.21-10.12-19.96-29.46-36.22-34.32-66.49-24.21-16.75-42.76-41.03-55.95-72.45-24.69-12.15-52.22-20.51-55.2-61.53-28.33-9.87-61.06-14.87-85.79-33.74-8.22-6.27-14.69-18.57-20.89-20.84-9.21-3.38-22.45-.85-32.82-.99-21.34-.3-41.24-1.62-60.43-6.95-7.59-2.11-17.72-9.99-25.36-9.92-3.8,.03-8.99,4.7-12.68,5.95-25.77,8.74-56.41,5.85-84.3,2.98-8.9-.92-19.24-5.06-26.86-3.97-6.1,.88-14.44,9.08-21.63,12.9-21.79,11.58-48.24,21.2-76.09,22.83-4.38,.26-8.97-1.19-12.68,0-6.71,2.15-15.52,17.07-23.13,24.81-23.58,24.01-50.73,45.04-83.55,53.59-13.62,52.34-40.08,87.61-69.38,119.09-.4,36.88-7.82,59.75-20.89,82.37-2.35,4.07-12.62,16.93-12.68,18.86-.09,2.93,9.98,15.23,11.94,19.85,7.75,18.31,12.18,53.99,2.98,76.42,19.9,21.06,40.32,51.24,34.32,100.24,39.35,14.15,65.9,45.32,82.06,90.31,45.03,7.58,78.7,30.27,98.47,71.46,48.66-7.35,85.65,16.7,118.61,36.72,33.49-15.75,76.43-14.67,115.63-6.95,5.36,1.06,11.84,3.51,15.67,2.98,7.66-1.07,16.92-11.26,26.11-15.88,27.69-13.93,58.22-23.97,91.01-28.78,10.08-9.62,21.64-21.23,34.32-30.77,14.56-10.96,32.25-22.98,51.47-18.86Zm-361.06,55.58c-67.03-16.28-121.52-44.62-168.59-85.35-29.93-25.89-57.55-55.11-80.57-98.25-18.52-34.71-41.03-96.04-37.3-156.8,2.65-43.21,17.32-85.74,32.08-118.1,45.69-100.16,124.13-164.36,217.08-195.51,67.96-22.77,150.03-24.4,220.81-8.93,68.78,15.03,127.84,46.73,176.05,88.33,50.2,43.31,90.65,98.07,110.41,175.66,11.48,45.07,11.98,90.62,1.49,134.97-9.23,39.02-27.06,75.08-44.76,102.22-36.92,56.61-84.2,97.78-145.47,129.02-58.31,29.73-131.25,47.69-210.37,42.67-24.03-1.52-48.66-4.53-70.87-9.92Z"/><path class="cls-4" d="M399.85,796.92c79.12,5.01,152.06-12.94,210.37-42.67,61.27-31.24,108.55-72.41,145.47-129.02,17.7-27.14,35.53-63.2,44.76-102.22,10.49-44.35,9.98-89.9-1.49-134.97-19.75-77.59-60.2-132.35-110.41-175.66-48.21-41.59-107.27-73.3-176.05-88.33-70.79-15.46-152.85-13.84-220.81,8.93-92.95,31.15-171.39,95.35-217.08,195.51-14.76,32.36-29.42,74.88-32.08,118.1-3.73,60.76,18.78,122.09,37.3,156.8,23.02,43.14,50.64,72.36,80.57,98.25,47.08,40.73,101.56,69.07,168.59,85.35,22.21,5.4,46.84,8.4,70.87,9.92Zm-70.87-17.86c-67.27-16.64-121.77-46.35-169.34-87.33-29.91-25.76-56.76-57.69-79.07-103.21-19.64-40.06-38.85-100.47-29.09-162.76,8.47-54.05,28.83-100.49,52.97-137.95,70.2-108.94,192.95-179.27,345.39-164.74,97.61,9.3,175.49,40.86,239.46,98.25,29.77,26.71,57.73,60.57,79.07,103.21,19.68,39.33,40.04,97.85,32.08,160.77-14.29,113-76.56,183.17-140.99,229.25-67.63,48.36-153.69,81.05-258.11,74.43-24.74-1.57-50.26-4.46-72.36-9.92Z"/><path class="cls-4" d="M399.85,778.07c43.99-30.11,95.02-61.34,143.98-85.35,26.28-12.89,52.07-23.43,78.33-33.74,26.2-10.29,52.93-19.62,79.82-31.76-6.05-103.18-1.22-215.31,25.36-288.8,2.8-7.74,12.17-24.62,9.7-29.77-1.69-3.52-14.41-6.96-20.89-8.93-107.13-32.53-191.52-82.39-279-139.93-2.87-1.89-14.04-11.89-17.9-11.91-5.03-.03-10.93,9.59-16.41,14.89-70.29,68.03-169.65,110.97-265.57,146.88-7.23,2.71-18.56,4.9-20.14,8.93-2.04,5.19,4.56,25.29,6.71,34.74,7.93,34.86,15.67,72.54,15.67,116.11s-5.4,82.8-12.68,120.08c-2.16,11.07-6.6,21.79-5.22,33.74,110.17,28.43,204.94,77.35,278.25,154.82Zm-123.83-103.21c-45.73-24.14-95.44-47.72-148.45-57.56,9.01-44.25,17.9-94.9,17.9-149.86s-12.4-103.36-22.38-144.89c109.58-40.8,216.27-85.44,296.16-165.74,93.86,65.02,193.32,122.58,311.08,155.81-33.21,73.33-42,195.54-34.32,310.63-108.15,35.43-207.84,82.1-294.67,145.89-34.52-38.38-79.28-69.97-125.33-94.28Z"/><path class="cls-4" d="M521.45,656c-4.77-8.63-14.87-6.57-22.38-7.94-46.99-8.55-106.44-11.05-152.18,1.98-7.47,2.13-15.95,1.9-20.89,8.93-.21,2.26,.18,3.73,1.49,3.97,47.93-17.93,117.05-17.72,171.58-6.95,6.99,1.38,15.81,5.66,22.38,0Z"/><path class="cls-4" d="M319.28,640.12c2.3-2.37,.78-4.67,.75-8.93,19.97-.56,43.28,3.32,53.71-9.92,1.17-20.08-6.52-28.37-19.4-29.77,4.84-5.81,10.8-8.01,9.7-19.85-2.42-26.04-51-17.1-63.41-5.95,.98,13.06,5.05,23.76,7.46,35.73,2.33,11.56,4.54,23.16,6.71,35.73-.21,1.6,.71,1.71,.75,2.98h3.73Zm0-16.87c-2.28-4.57-2.22-12.27-3.73-17.86,16.45-2.51,47.95-18.53,52.22,9.92-8.7,12.57-31.51,6.37-48.49,7.94Zm-12.68-52.6c9.37-3.64,22.62-10.48,37.3-7.94,3.77,.65,14.23,4.56,14.17,11.91-.13,15.89-34.44,17.95-44.76,20.84-1.05-9.85-4.43-16.6-6.71-24.81Z"/><path class="cls-4" d="M511,630.19c-6.45-8.7-19.61-3-27.6-10.92-5.27-5.22-7.81-17.93-3.73-28.78,5.2-13.84,20.12-23.08,35.06-24.81,5.92-.69,12.62,2.89,17.9-2.98-3.46-7.86-12.98-5.5-18.65-4.96-19.29,1.84-47.87,18.31-42.52,52.6,2.51,16.12,24.58,29.86,39.54,19.85Z"/><path class="cls-4" d="M386.42,631.19c9.23-8.23,11.71-25.44,17.9-37.71h29.09c2.96,5.31,5.6,11.95,8.21,18.86,2.2,5.82,2.87,16.92,9.7,16.87,2.42-8.17-3.29-15.71-5.97-22.83-8.11-21.55-16.71-46.56-29.09-62.52-8.48,18.26-15.13,42.33-23.87,63.52-3.42,8.28-9.39,15.34-7.46,23.82h1.49Zm31.33-73.44c4.05,9.5,9.2,17.54,12.68,27.79h-22.38c2.75-9.9,5.79-19.42,9.7-27.79Z"/><path class="cls-4" d="M281.98,527.97c4.1-11.3,8.81-23.09,8.95-39.7,.1-11.52-4.89-23.88-3.73-32.75,1.19-9.1,8.54-10.68,11.94-16.87,19.69,11.92,36.88,25.79,56.7,36.72,26.25,14.48,55.36,14.79,91.01,16.87,11.26,.66,26.25-1.92,38.05,1.98,4.36,1.44,4.69,7.69,10.44,4.96-2.27-15.85-22.6-31.48-20.14-54.58,.81-7.64,4.74-10.02,7.46-16.87,12.34-7.21,28.46-15.38,41.78-5.95,8.75,6.19,12.42,21.17,20.14,26.8-5.21,11.17-8.55,26.03-7.46,47.64,.45,8.94,1.97,30.08,6.71,29.77,5.37-.35-.3-22.92-.75-31.76-.83-16.5,1.65-29.65,5.97-39.7,13.08,2.57,34.69-.02,48.49,.99,14.02,1.03,22.32,4.41,19.4,25.8-1.01,7.37-2.91,15.8-3.73,23.82-.77,7.52-3.86,18.19,1.49,22.83,5.88-.71,3.27-8.98,3.73-15.88,1.65-24.65,14.86-64.46-13.43-63.52,5.54-19.11,16.13-45.35,18.65-68.48,15.77-10.54,31.71-26.34,24.62-52.6-5.45-20.16-32.33-53.93-55.95-50.61-8.34,1.17-17.33,7.99-25.36,11.91-16.98,8.29-31.66,14.67-49.24,24.81-7.67,4.43-17.76,9.42-20.14,17.86-4.95,17.52,2.27,38.77-2.98,51.61-4.8,11.72-16.5,10.15-26.86,17.86-10.5-13.79-20.11,7.24-34.32-.99,15.2-14.39,54.47-55.46,29.09-91.3-9.9-13.99-33.06-18.75-50.73-9.92,7.62-16.03,2.95-39.02-17.9-29.77-13.63,6.04-30.01,28.97-40.28,34.74-6.72-3.3-12.35-8.05-18.65-11.91,3.74-31.06-10.17-46.47-32.08-37.71-14.38,5.74-40.05,34.03-49.98,50.61-9.04,15.09-16.62,36.76-14.92,59.55,2.09,27.98,26.13,22.23,40.28,8.93,4.77,3.24,8.2,8.28,11.94,12.9-1.11,6.2-3.07,11.74-1.49,18.86,3.39,4.09,7.75,6.89,14.92,5.95,.5,4.63-1.18,6.38-1.49,9.92-8.73,2.45-17.21-.52-24.62,2.98-8.62,4.08-18.29,14.59-17.9,24.81,12.17-5.09,15.59-22.65,35.81-18.86-3.28,6.73-8.95,13.83-14.92,20.84-5.08,5.96-14.43,11.47-13.43,21.83,8.05,.46,8.58-9.1,14.17-11.91,7.08,22.73-1.14,47.87-2.24,67.49h2.98Zm77.58-59.55c-19.84-10.84-37.15-24.24-56.7-36.72,2.79-1.92,2.91-7.38,5.97-8.93,41.31,35.02,95.59,52.8,165.61,49.62,1.84,3.69,8.19,11.35,5.97,13.89-44.2-3.07-88.33-.1-120.85-17.86Zm5.22-20.84c-9.86-4.55-18.67-8.93-29.84-15.88-6.07-3.78-25.62-14.43-25.36-21.83,.23-6.59,10.97-9.83,11.19-14.89,3.38,17.46,15.3,22.68,31.33,19.85,16.39-2.9,32.96-21.05,34.32-50.61,.48-10.38-2.87-28.75,0-37.71,1.99-6.22,13.27-13.44,19.4-16.87,18.05-10.1,44.79-10.69,54.46,7.94,11.72,22.58-6.18,49.6-15.67,60.54-4.37,5.04-19.53,13.94-18.65,22.83,1.28,12.95,26.91,10.87,32.08,1.98,6.81,6.82,12.9,14.6,17.16,24.81-6.74,7.55-8.19,24.4-3.73,36.72-40.56-1.16-71.92-.85-106.68-16.87Zm188.74,0c-6.42-9.76-30.04-29.32-24.62-47.64,2.09-7.06,11.34-10.22,19.4-8.93,8.38,1.34,13.08,9.48,18.65,12.9,16.35-7.35,33.53-13.62,49.98-20.84-4.35,24.32-11.7,44.64-19.4,64.51h-44.01Zm-73.11-27.79c-2.67-.76-6.73-8.24-8.95-12.9,11-5.5,21.81-6.09,27.6-17.86,5.46-11.11,2.21-27.38,5.22-43.67,6.03,14.94,23.63,23.63,38.79,20.84,20.72-3.81,28.89-41.88,16.41-65.5,5.54-2.55,11.28-4.84,16.41-7.94-7.68,44.98,15.85,72.37,43.27,80.39-16.23,8.18-34.4,13.78-50.73,21.83-10.97-16.88-51.67-18.36-45.51,16.87-15.85-5.86-31.23,1.61-42.52,7.94Zm-153.67-26.8c-2.29-20.36,17.2-33.17,29.84-32.75,9.24,.31,20.24,5.93,20.14,18.86-.12,16.05-24.75,30.02-38.05,26.8-7.09-1.72-11.2-6.34-11.94-12.9Zm47-67.49c-7.44,7.39-13.26,20.8-22.38,26.8-4.12,2.71-8.93,2.52-12.68,4.96-16.25,10.56-22.35,49.31-43.27,44.66-1.35-18.66,10.82-31.27,19.4-42.67,18.78-24.98,36.97-43.78,58.93-63.52,10.09-9.07,22.18-24.86,35.81-17.86-.11,13.09-5.95,18.56-9.7,26.8-8.21,6.51-16.69,11.48-26.11,20.84Zm-88.77,42.67c19.18-18.14,39.81-34.38,47.74-67.49,6.11,1.13,8.81,6.81,14.92,7.94-18.92,22.47-39.38,42.88-54.46,70.46-1.88-4.78-6.24-6.25-8.21-10.92Zm-38.05-30.77c7.75-31.33,19.78-40.84,37.3-58.55,9.01-9.11,18.26-19.12,29.84-18.86,16.59,.37,17.7,23.89,12.68,41.68-7.65,27.11-39.27,59.95-61.17,71.46-5.18,2.72-10.89,3.6-13.43,2.98-11.77-2.88-8.25-26.47-5.22-38.7Zm114.14,15.88c5.5-8.23,11.05-16.39,18.65-21.83-1.06,11.93,1.98,25.82-.75,33.74-4.46-5.97-9.43-11.27-17.9-11.91Zm218.57-49.62c3.88-32.77,35.85-12.39,46.25-.99,6.15,6.74,18.86,21.95,17.9,38.7-1.1,19.37-15.07,24.68-27.6,21.83-18.29-4.15-39.8-32.13-36.55-59.55Zm-37.3,53.59c-9.12,2.34-25.17-1.87-30.59-9.92-2.65-3.95-6.2-19.6,0-21.83,.37,29.06,40.08,25.11,39.54,.99-.2-8.77-5.87-11.88-10.44-16.87,4.78-1.25,8.46-3.96,12.68-5.95,11.08,21,5.92,49.21-11.19,53.59Zm-23.87-30.77c.73-14.01,26.52-13.83,26.11,.99-.25,9.21-8.41,10.19-13.43,9.92-8.9-.47-13.05-3.85-12.68-10.92Z"/><path class="cls-2" d="M480.42,486.29c2.22-2.54-4.13-10.2-5.97-13.89-70.02,3.18-124.3-14.6-165.61-49.62-3.06,1.55-3.18,7.02-5.97,8.93,19.55,12.48,36.85,25.88,56.7,36.72,32.52,17.77,76.65,14.79,120.85,17.86Z"/><path class="cls-2" d="M522.94,411.86c-6.16-35.23,34.54-33.75,45.51-16.87,16.33-8.05,34.5-13.65,50.73-21.83-27.42-8.02-50.95-35.4-43.27-80.39-5.13,3.09-10.87,5.39-16.41,7.94,12.48,23.62,4.31,61.69-16.41,65.5-15.16,2.79-32.76-5.91-38.79-20.84-3.01,16.29,.24,32.56-5.22,43.67-5.79,11.78-16.6,12.36-27.6,17.86,2.22,4.66,6.28,12.14,8.95,12.9,11.29-6.33,26.67-13.8,42.52-7.94Z"/><path class="cls-2" d="M399.85,304.68c3.75-8.24,9.59-13.71,9.7-26.8-13.63-6.99-25.72,8.8-35.81,17.86-21.97,19.73-40.15,38.53-58.93,63.52-8.57,11.41-20.75,24.02-19.4,42.67,20.92,4.65,27.02-34.1,43.27-44.66,3.75-2.44,8.56-2.25,12.68-4.96,9.12-6,14.94-19.41,22.38-26.8,9.42-9.36,17.9-14.33,26.11-20.84Z"/><path class="cls-4" d="M350.62,396.97c10.03,3.67,15.68-2.8,16.41-9.92,2.01-19.53-23.07-26.47-26.11-9.92-2.24,12.16,4.19,17.83,9.7,19.85Zm-3.73-16.87c3.25-7.69,15.66-3.66,13.43,7.94-5.42,4.24-13.38,.88-13.43-7.94Z"/><path class="cls-2" d="M252.14,376.13c2.54,.62,8.25-.25,13.43-2.98,21.9-11.5,53.53-44.35,61.17-71.46,5.02-17.79,3.91-41.31-12.68-41.68-11.58-.26-20.83,9.75-29.84,18.86-17.52,17.71-29.55,27.23-37.3,58.55-3.03,12.23-6.55,35.82,5.22,38.7Z"/><path class="cls-2" d="M616.19,363.23c12.53,2.84,26.5-2.46,27.6-21.83,.95-16.75-11.75-31.96-17.9-38.7-10.4-11.39-42.37-31.78-46.25,.99-3.25,27.42,18.27,55.4,36.55,59.55Zm-26.86-33.74c-1.35-11.6-.78-30.58,6.71-30.77,3.35,3.84-1.76,12.57,0,16.87,11.51-8.71,16.35,18.58,10.44,29.77,2.86,.83,5.21,2.34,5.97,5.95-6.92,10.79-21.79-10.36-23.13-21.83Z"/><path class="cls-3" d="M553.52,303.68c-4.22,2-7.9,4.71-12.68,5.95,4.57,4.99,10.25,8.1,10.44,16.87,.55,24.11-39.17,28.07-39.54-.99-6.2,2.24-2.65,17.88,0,21.83,5.41,8.06,21.46,12.26,30.59,9.92,17.11-4.38,22.27-32.59,11.19-53.59Z"/><path class="cls-4" d="M612.46,351.32c-.76-3.62-3.11-5.12-5.97-5.95,5.9-11.19,1.06-38.49-10.44-29.77-1.76-4.3,3.35-13.03,0-16.87-7.49,.19-8.06,19.16-6.71,30.77,1.33,11.48,16.21,32.63,23.13,21.83Zm-11.19-28.78c1.01,4.61,1.57,9.82,1.49,15.88-5.08,3.03-10.66-16.59-1.49-15.88Z"/><path class="cls-4" d="M373.74,265.97c9.82,1.22,20.65-3.52,20.89-17.86,.42-25.61-37.23-25-38.05-.99-.36,10.52,5.92,17.46,17.16,18.86Zm-10.44-18.86c.65-14.02,25.82-14.06,24.62,1.98-.66,8.8-7.88,9.27-12.68,8.93-8.69-.61-12.25-3.99-11.94-10.92Z"/><path class="cls-4" d="M425.21,262c11.74,1.58,20.1-6.11,20.14-18.86,.08-26.75-35.97-26.15-36.55-.99-.3,12.79,6.97,18.57,16.41,19.85Zm-9.7-19.85c.55-15.32,24.35-15.2,23.13,1.98-.49,6.85-5.18,10.48-11.94,9.92-6.9-.56-11.51-2.88-11.19-11.91Z"/><path class="cls-4" d="M398.36,228.26c12.22,1.44,21.55-6.4,21.63-19.85,.17-28.26-38.95-27.27-39.54-.99-.31,13.71,7.84,19.66,17.9,20.84Zm-11.19-19.85c-.22-17.98,27.22-16.87,26.86,0-.2,9.42-8.65,12.3-14.17,11.91-9.19-.65-12.6-5.09-12.68-11.91Z"/><path class="cls-4" d="M693.02,117.11c.3-8.16-5.69-7.67-8.95-11.91-6.65-8.64-6.15-22.39-12.68-31.76-5.25,1.18-3.72,7.6-5.22,11.91-3.78,10.82-11.84,14.83-17.9,22.83,2.75,7.61,9.18,5.38,12.68,11.91,3.84,7.17,1.02,17.48,5.22,25.8,10.82-7.11,14.47-23.76,26.86-28.78Zm-34.32-9.92c5.7-3.34,8.8-10.13,12.68-15.88,2.23,10.27,7.1,17.02,11.94,23.82-5.27,4.24-9.39,10-13.43,15.88-.93-11.66-5.98-17.85-11.19-23.82Z"/><path class="cls-3" d="M669.9,131c4.04-5.88,8.16-11.64,13.43-15.88-4.84-6.8-9.71-13.55-11.94-23.82-3.88,5.75-6.99,12.54-12.68,15.88,5.21,5.96,10.26,12.16,11.19,23.82Z"/><path class="cls-4" d="M308.84,69.47c4.73-12.23,10.18-23.51,15.67-34.74-6.02-9.86-9.47-23.13-14.17-34.74-8.98,6.58-14.42,17.86-22.38,25.8,1.26,7.37,7.14,7.87,10.44,12.9,5.33,8.1,5.1,18.89,8.21,30.77h2.24Zm-11.94-41.68c2.8-6.2,7.47-9.91,11.19-14.89,2.24,8.6,6.42,14.62,8.95,22.83-2.48,4.97-5.08,9.78-8.21,13.89-1.64-10.39-6.01-17.15-11.94-21.83Z"/><path class="cls-3" d="M308.84,49.62c3.13-4.11,5.72-8.93,8.21-13.89-2.53-8.21-6.72-14.22-8.95-22.83-3.72,4.98-8.39,8.68-11.19,14.89,5.93,4.68,10.3,11.44,11.94,21.83Z"/></svg>